<svg xmlns="http://www.w3.org/2000/svg" xmlns:xlink="http://www.w3.org/1999/xlink" width="321" zoomAndPan="magnify" viewBox="0 0 240.75 147.000002" height="196" preserveAspectRatio="xMidYMid meet" version="1.0"><defs><g/><clipPath id="77df4ba33b"><path d="M 80 76 L 151 76 L 151 145.804688 L 80 145.804688 Z M 80 76 " clip-rule="nonzero"/></clipPath><clipPath id="e4a73f3ba7"><path d="M 1.773438 75 L 57 75 L 57 131 L 1.773438 131 Z M 1.773438 75 " clip-rule="nonzero"/></clipPath><clipPath id="d14ffde998"><path d="M 212 76 L 237.917969 76 L 237.917969 111 L 212 111 Z M 212 76 " clip-rule="nonzero"/></clipPath></defs><path fill="#0e1215" d="M 137.832031 103.628906 C 140.046875 106.234375 142.179688 108.921875 144.210938 111.679688 C 144.890625 112.601562 145.558594 113.53125 146.210938 114.46875 C 147.523438 116.339844 148.789062 118.246094 150.003906 120.1875 C 150.613281 121.15625 151.210938 122.132812 151.792969 123.117188 C 154.960938 128.476562 157.734375 134.074219 160.042969 139.871094 C 169.722656 136.953125 178.964844 133.019531 187.636719 128.183594 C 170.464844 110.632812 148.410156 96.527344 123.226562 87.277344 C 122.53125 87.023438 121.828125 86.78125 121.125 86.53125 C 127.027344 91.839844 132.636719 97.519531 137.832031 103.632812 Z M 137.832031 103.628906 " fill-opacity="1" fill-rule="nonzero"/><path fill="#0e1215" d="M 61.28125 109.695312 C 61.453125 110.824219 61.609375 111.953125 61.753906 113.085938 C 61.898438 114.21875 62.027344 115.351562 62.148438 116.488281 C 62.746094 122.257812 63 128.078125 62.863281 133.890625 C 75.671875 139.5625 89.492188 143.359375 103.980469 144.957031 C 103.625 140.703125 103.023438 136.488281 102.195312 132.316406 C 101.773438 130.207031 101.292969 128.105469 100.761719 126.019531 C 99.160156 119.753906 97.070312 113.605469 94.585938 107.589844 C 93.757812 105.585938 92.882812 103.59375 91.972656 101.621094 C 91.515625 100.632812 91.046875 99.652344 90.574219 98.671875 C 87.714844 92.796875 84.507812 87.066406 81.050781 81.503906 C 80.007812 79.824219 78.933594 78.164062 77.847656 76.519531 C 69.882812 75.582031 61.75 75.089844 53.480469 75.089844 C 53.140625 75.089844 52.804688 75.101562 52.464844 75.105469 C 56.414062 86.28125 59.496094 97.816406 61.28125 109.699219 Z M 61.28125 109.695312 " fill-opacity="1" fill-rule="nonzero"/><g clip-path="url(#77df4ba33b)"><path fill="#0e1215" d="M 148.410156 134.957031 C 146.539062 129.902344 144.300781 124.996094 141.761719 120.242188 C 140.746094 118.339844 139.683594 116.460938 138.574219 114.609375 C 138.019531 113.679688 137.453125 112.757812 136.875 111.84375 C 130.699219 102.046875 123.269531 92.9375 115.160156 84.515625 C 104.039062 80.976562 92.359375 78.375 80.273438 76.808594 C 81.949219 78.894531 83.597656 81.003906 85.199219 83.160156 C 90.511719 90.324219 95.378906 97.863281 99.621094 105.824219 C 101.230469 108.84375 102.738281 111.921875 104.136719 115.050781 C 107.871094 123.398438 110.804688 132.125 112.691406 141.09375 C 113.011719 142.617188 113.292969 144.148438 113.554688 145.6875 C 115.535156 145.769531 117.523438 145.828125 119.527344 145.828125 C 130.285156 145.828125 140.761719 144.613281 150.820312 142.316406 C 150.097656 139.832031 149.308594 137.371094 148.414062 134.957031 Z M 148.410156 134.957031 " fill-opacity="1" fill-rule="nonzero"/></g><g clip-path="url(#e4a73f3ba7)"><path fill="#0e1215" d="M 55.140625 99.929688 C 54.203125 91.59375 52.628906 83.292969 50.621094 75.132812 C 33.636719 75.359375 17.234375 77.601562 1.773438 81.632812 C 15.0625 102.214844 33.601562 119.085938 55.492188 130.363281 C 56.507812 120.296875 56.289062 110.089844 55.140625 99.929688 Z M 55.140625 99.929688 " fill-opacity="1" fill-rule="nonzero"/></g><path fill="#0e1215" d="M 189.320312 75.125 C 179.285156 75.300781 169.464844 76.183594 159.917969 77.722656 C 155.234375 82.183594 150.757812 86.835938 146.535156 91.683594 C 154.402344 95.726562 161.90625 100.269531 168.945312 105.277344 C 174.683594 94.585938 181.65625 84.496094 189.320312 75.125 Z M 189.320312 75.125 " fill-opacity="1" fill-rule="nonzero"/><g clip-path="url(#d14ffde998)"><path fill="#0e1215" d="M 217.28125 76.511719 C 214.621094 87.644531 212.839844 98.929688 212.292969 110.222656 C 212.285156 110.382812 212.28125 110.542969 212.273438 110.707031 C 222.328125 101.808594 231.101562 91.5 238.265625 80.082031 C 231.433594 78.539062 224.425781 77.347656 217.28125 76.511719 Z M 217.28125 76.511719 " fill-opacity="1" fill-rule="nonzero"/></g><path fill="#0e1215" d="M 156.964844 78.214844 C 148.0625 79.785156 139.414062 81.925781 131.070312 84.589844 C 135.234375 86.277344 139.324219 88.097656 143.316406 90.054688 C 147.695312 85.898438 152.265625 81.953125 156.964844 78.214844 Z M 156.964844 78.214844 " fill-opacity="1" fill-rule="nonzero"/><path fill="#0e1215" d="M 215.367188 76.289062 C 208.035156 75.5 200.558594 75.085938 192.964844 75.085938 C 192.417969 75.085938 191.875 75.101562 191.332031 75.105469 C 184.308594 85.578125 178.1875 96.582031 173.472656 108.097656 C 173.421875 108.226562 173.371094 108.355469 173.320312 108.484375 C 179.820312 113.421875 185.894531 118.753906 191.460938 124.445312 L 192.398438 125.402344 C 197.195312 122.472656 201.804688 119.257812 206.199219 115.789062 C 207.664062 102.363281 210.941406 89.0625 215.367188 76.292969 Z M 215.367188 76.289062 " fill-opacity="1" fill-rule="nonzero"/><g fill="#0e1215" fill-opacity="1"><g transform="translate(26.829295, 68.366921)"><g><path d="M 21.671875 0 L 12.578125 0 L 12.578125 -36.359375 L 1.265625 -36.359375 L 1.265625 -45.390625 L 32.984375 -45.390625 L 32.984375 -36.359375 L 21.671875 -36.359375 Z M 21.671875 0 "/></g></g></g><g fill="#0e1215" fill-opacity="1"><g transform="translate(57.594017, 68.366921)"><g><path d="M 1.015625 0 L 20.15625 -47.09375 L 21.109375 -47.09375 L 40.234375 0 L 30 0 L 28.15625 -4.890625 L 13.09375 -4.890625 L 11.3125 0 Z M 16.40625 -13.40625 L 24.796875 -13.40625 L 20.65625 -25.234375 Z M 16.40625 -13.40625 "/></g></g></g><g fill="#0e1215" fill-opacity="1"><g transform="translate(99.101096, 68.366921)"><g><path d="M 27.71875 0 L 18.5625 -17.359375 L 14.171875 -17.359375 L 14.171875 0 L 5.078125 0 L 5.078125 -45.453125 L 23.015625 -45.453125 C 25.722656 -45.453125 28.019531 -44.890625 29.90625 -43.765625 C 31.789062 -42.640625 33.257812 -41.175781 34.3125 -39.375 C 35.375 -37.570312 36.03125 -35.625 36.28125 -33.53125 C 36.539062 -31.4375 36.382812 -29.378906 35.8125 -27.359375 C 35.238281 -25.347656 34.265625 -23.566406 32.890625 -22.015625 C 31.515625 -20.472656 29.703125 -19.382812 27.453125 -18.75 L 38.015625 0 Z M 14.171875 -26.1875 L 22.1875 -26.1875 C 23.414062 -26.1875 24.398438 -26.523438 25.140625 -27.203125 C 25.878906 -27.878906 26.375 -28.722656 26.625 -29.734375 C 26.882812 -30.753906 26.882812 -31.773438 26.625 -32.796875 C 26.375 -33.816406 25.878906 -34.664062 25.140625 -35.34375 C 24.398438 -36.019531 23.414062 -36.359375 22.1875 -36.359375 L 14.171875 -36.359375 Z M 14.171875 -26.1875 "/></g></g></g><g fill="#0e1215" fill-opacity="1"><g transform="translate(138.065621, 68.366921)"><g><path d="M 1.015625 0 L 20.15625 -47.09375 L 21.109375 -47.09375 L 40.234375 0 L 30 0 L 28.15625 -4.890625 L 13.09375 -4.890625 L 11.3125 0 Z M 16.40625 -13.40625 L 24.796875 -13.40625 L 20.65625 -25.234375 Z M 16.40625 -13.40625 "/></g></g></g><g fill="#0e1215" fill-opacity="1"><g transform="translate(179.572699, 68.366921)"><g><path d="M 2.984375 -2.921875 L 4.125 -12.453125 C 5.863281 -11.222656 7.59375 -10.34375 9.3125 -9.8125 C 11.03125 -9.289062 12.585938 -8.984375 13.984375 -8.890625 C 15.378906 -8.804688 16.414062 -8.785156 17.09375 -8.828125 C 18.445312 -8.921875 19.601562 -9.398438 20.5625 -10.265625 C 21.519531 -11.128906 21.929688 -12.175781 21.796875 -13.40625 C 21.710938 -14.71875 21.222656 -15.710938 20.328125 -16.390625 C 19.441406 -17.078125 18.363281 -17.628906 17.09375 -18.046875 C 14.71875 -18.941406 12.503906 -19.96875 10.453125 -21.125 C 8.398438 -22.289062 6.75 -23.742188 5.5 -25.484375 C 4.25 -27.222656 3.625 -29.363281 3.625 -31.90625 C 3.625 -34.445312 4.160156 -36.742188 5.234375 -38.796875 C 6.316406 -40.859375 7.832031 -42.503906 9.78125 -43.734375 C 11.738281 -44.960938 13.96875 -45.640625 16.46875 -45.765625 C 17.65625 -45.847656 19.101562 -45.804688 20.8125 -45.640625 C 22.53125 -45.472656 24.851562 -44.878906 27.78125 -43.859375 L 26.625 -35.09375 C 24.125 -36.101562 22.132812 -36.679688 20.65625 -36.828125 C 19.175781 -36.984375 18.078125 -37.039062 17.359375 -37 C 15.742188 -36.90625 14.566406 -36.347656 13.828125 -35.328125 C 13.085938 -34.316406 12.757812 -33.175781 12.84375 -31.90625 C 12.96875 -30.632812 13.515625 -29.671875 14.484375 -29.015625 C 15.460938 -28.359375 16.609375 -27.796875 17.921875 -27.328125 C 20.296875 -26.484375 22.476562 -25.4375 24.46875 -24.1875 C 26.457031 -22.9375 28.054688 -21.429688 29.265625 -19.671875 C 30.472656 -17.910156 31.078125 -15.820312 31.078125 -13.40625 C 31.078125 -10.90625 30.523438 -8.640625 29.421875 -6.609375 C 28.328125 -4.578125 26.75 -2.945312 24.6875 -1.71875 C 22.632812 -0.488281 20.191406 0.207031 17.359375 0.375 C 16.503906 0.414062 15.347656 0.382812 13.890625 0.28125 C 12.429688 0.175781 10.769531 -0.113281 8.90625 -0.59375 C 7.039062 -1.082031 5.066406 -1.859375 2.984375 -2.921875 Z M 2.984375 -2.921875 "/></g></g></g></svg>